<svg width="23" height="25" viewBox="0 0 23 25" fill="none" xmlns="http://www.w3.org/2000/svg">
<path fill-rule="evenodd" clip-rule="evenodd" d="M1.81315 16.6702C2.97408 15.5093 4.54865 14.8571 6.19047 14.8571H16.0952C17.737 14.8571 19.3116 15.5093 20.4725 16.6702C21.6335 17.8311 22.2857 19.4057 22.2857 21.0475V23.5237C22.2857 24.2075 21.7314 24.7618 21.0476 24.7618C20.3638 24.7618 19.8095 24.2075 19.8095 23.5237V21.0475C19.8095 20.0624 19.4182 19.1177 18.7216 18.4211C18.025 17.7246 17.0803 17.3332 16.0952 17.3332H6.19047C5.20538 17.3332 4.26064 17.7246 3.56407 18.4211C2.86751 19.1177 2.47619 20.0624 2.47619 21.0475V23.5237C2.47619 24.2075 1.92187 24.7618 1.23809 24.7618C0.554313 24.7618 0 24.2075 0 23.5237V21.0475C0 19.4057 0.652208 17.8311 1.81315 16.6702Z" fill="black"/>
<path fill-rule="evenodd" clip-rule="evenodd" d="M11.1426 2.47619C9.09127 2.47619 7.42833 4.13913 7.42833 6.19047C7.42833 8.24181 9.09127 9.90475 11.1426 9.90475C13.194 9.90475 14.8569 8.24181 14.8569 6.19047C14.8569 4.13913 13.194 2.47619 11.1426 2.47619ZM4.95215 6.19047C4.95215 2.77157 7.72371 0 11.1426 0C14.5615 0 17.3331 2.77157 17.3331 6.19047C17.3331 9.60937 14.5615 12.3809 11.1426 12.3809C7.72371 12.3809 4.95215 9.60937 4.95215 6.19047Z" fill="black"/>
</svg>
