<svg width="27" height="26" viewBox="0 0 27 26" fill="none" xmlns="http://www.w3.org/2000/svg">
<path fill-rule="evenodd" clip-rule="evenodd" d="M9.90443 23.0595C9.9899 23.0595 10.0592 22.9902 10.0592 22.9047C10.0592 22.8193 9.9899 22.75 9.90443 22.75C9.81896 22.75 9.74967 22.8193 9.74967 22.9047C9.74967 22.9902 9.81896 23.0595 9.90443 23.0595ZM7.58301 22.9047C7.58301 21.6227 8.62234 20.5833 9.90443 20.5833C11.1865 20.5833 12.2259 21.6227 12.2259 22.9047C12.2259 24.1868 11.1865 25.2262 9.90443 25.2262C8.62234 25.2262 7.58301 24.1868 7.58301 22.9047Z" fill="black"/>
<path fill-rule="evenodd" clip-rule="evenodd" d="M21.8214 23.0595C21.9069 23.0595 21.9762 22.9902 21.9762 22.9047C21.9762 22.8193 21.9069 22.75 21.8214 22.75C21.736 22.75 21.6667 22.8193 21.6667 22.9047C21.6667 22.9902 21.736 23.0595 21.8214 23.0595ZM19.5 22.9047C19.5 21.6227 20.5393 20.5833 21.8214 20.5833C23.1035 20.5833 24.1428 21.6227 24.1428 22.9047C24.1428 24.1868 23.1035 25.2262 21.8214 25.2262C20.5393 25.2262 19.5 24.1868 19.5 22.9047Z" fill="black"/>
<path fill-rule="evenodd" clip-rule="evenodd" d="M0 1.23809C0 0.554313 0.554313 0 1.23809 0H5.57142C6.16153 0 6.66962 0.416476 6.78543 0.995109L7.6704 5.41666H25.0714C25.4404 5.41666 25.7901 5.58123 26.0253 5.86553C26.2605 6.14983 26.3567 6.52423 26.2876 6.88668L24.5525 15.9851C24.3968 16.7689 23.9704 17.4729 23.3479 17.974C22.7289 18.4723 21.9551 18.7383 21.1608 18.7262H10.652C9.85766 18.7383 9.08392 18.4723 8.46489 17.974C7.84271 17.4731 7.41643 16.7695 7.26059 15.9862C7.26052 15.9858 7.26066 15.9865 7.26059 15.9862L5.45166 6.94829C5.44377 6.91581 5.43715 6.88284 5.43187 6.84942L4.55657 2.47619H1.23809C0.554313 2.47619 0 1.92187 0 1.23809ZM8.16601 7.89284L9.68912 15.5027C9.73157 15.7165 9.84786 15.9085 10.0176 16.0451C10.1874 16.1818 10.3998 16.2544 10.6177 16.2502L10.6414 16.25H21.1714L21.1951 16.2502C21.413 16.2544 21.6254 16.1818 21.7952 16.0451C21.964 15.9092 22.0799 15.7186 22.123 15.5063C22.1232 15.5051 22.1234 15.5039 22.1237 15.5027L23.5749 7.89284H8.16601Z" fill="black"/>
</svg>
