<svg width="16" height="16" viewBox="0 0 16 16" fill="none" xmlns="http://www.w3.org/2000/svg">
<path fill-rule="evenodd" clip-rule="evenodd" d="M15.4788 0.477789C15.9198 0.91725 15.9198 1.62976 15.4788 2.06922L1.92776 15.5729C1.48676 16.0124 0.771753 16.0124 0.330751 15.5729C-0.11025 15.1335 -0.11025 14.421 0.330751 13.9815L13.8818 0.477789C14.3228 0.0383281 15.0378 0.0383281 15.4788 0.477789Z" fill="#383838"/>
<path fill-rule="evenodd" clip-rule="evenodd" d="M0.330751 0.477789C0.771753 0.0383281 1.48676 0.0383281 1.92776 0.477789L15.4788 13.9815C15.9198 14.421 15.9198 15.1335 15.4788 15.5729C15.0378 16.0124 14.3228 16.0124 13.8818 15.5729L0.330751 2.06922C-0.11025 1.62976 -0.11025 0.91725 0.330751 0.477789Z" fill="#383838"/>
</svg>
