<svg width="16" height="16" viewBox="0 0 16 16" fill="none" xmlns="http://www.w3.org/2000/svg">
<path fill-rule="evenodd" clip-rule="evenodd" d="M15.6653 0.329596C16.1116 0.769056 16.1116 1.48156 15.6653 1.92102L1.95098 15.4247C1.50467 15.8642 0.781049 15.8642 0.334735 15.4247C-0.111578 14.9853 -0.111578 14.2728 0.334735 13.8333L14.049 0.329596C14.4953 -0.109865 15.219 -0.109865 15.6653 0.329596Z" fill="#D0CFCF"/>
<path fill-rule="evenodd" clip-rule="evenodd" d="M0.334735 0.329596C0.781049 -0.109865 1.50467 -0.109865 1.95098 0.329596L15.6653 13.8333C16.1116 14.2728 16.1116 14.9853 15.6653 15.4247C15.219 15.8642 14.4953 15.8642 14.049 15.4247L0.334735 1.92102C-0.111578 1.48156 -0.111578 0.769056 0.334735 0.329596Z" fill="#D0CFCF"/>
</svg>
