<svg width="19" height="25" viewBox="0 0 19 25" fill="none" xmlns="http://www.w3.org/2000/svg">
<path fill-rule="evenodd" clip-rule="evenodd" d="M17.5005 8.07709C18.244 8.07709 18.8467 8.67979 18.8467 9.42327V22.8851C18.8467 23.6285 18.244 24.2313 17.5005 24.2313C16.757 24.2313 16.1543 23.6285 16.1543 22.8851V9.42327C16.1543 8.67979 16.757 8.07709 17.5005 8.07709Z" fill="black"/>
<path fill-rule="evenodd" clip-rule="evenodd" d="M9.42333 0C10.1668 0 10.7695 0.602706 10.7695 1.34618V22.8851C10.7695 23.6285 10.1668 24.2313 9.42333 24.2313C8.67985 24.2313 8.07715 23.6285 8.07715 22.8851V1.34618C8.07715 0.602706 8.67985 0 9.42333 0Z" fill="black"/>
<path fill-rule="evenodd" clip-rule="evenodd" d="M1.34618 13.4619C2.08966 13.4619 2.69236 14.0646 2.69236 14.808V22.8851C2.69236 23.6286 2.08966 24.2313 1.34618 24.2313C0.602706 24.2313 0 23.6286 0 22.8851V14.808C0 14.0646 0.602706 13.4619 1.34618 13.4619Z" fill="black"/>
</svg>
