<svg width="28" height="25" viewBox="0 0 28 25" fill="none" xmlns="http://www.w3.org/2000/svg">
<path d="M24.8844 2.99559C24.2521 2.36293 23.5012 1.86106 22.6749 1.51865C21.8485 1.17624 20.9627 1 20.0682 1C19.1737 1 18.288 1.17624 17.4616 1.51865C16.6352 1.86106 15.8844 2.36293 15.2521 2.99559L13.9397 4.30797L12.6273 2.99559C11.35 1.71826 9.61753 1.00066 7.81111 1.00066C6.00469 1.00066 4.27226 1.71826 2.99493 2.99559C1.7176 4.27292 1 6.00535 1 7.81177C1 9.61819 1.7176 11.3506 2.99493 12.628L4.30731 13.9403L13.9397 23.5727L23.572 13.9403L24.8844 12.628C25.5171 11.9956 26.0189 11.2448 26.3614 10.4184C26.7038 9.59202 26.88 8.70628 26.88 7.81177C26.88 6.91727 26.7038 6.03152 26.3614 5.20515C26.0189 4.37877 25.5171 3.62795 24.8844 2.99559V2.99559Z" stroke="black" stroke-width="2" stroke-linecap="round" stroke-linejoin="round"/>
</svg>
