<svg width="88" height="44" viewBox="0 0 88 44" fill="none" xmlns="http://www.w3.org/2000/svg">
<path fill-rule="evenodd" clip-rule="evenodd" d="M52.939 13.4302V26.8605H56.1391H59.3391L59.3011 25.8692L59.263 24.8779L57.0789 24.8429L54.8949 24.8078V12.4039V0H53.9169H52.939V13.4302ZM21.9058 8.5864C20.5768 8.85909 18.7373 9.58829 17.4768 10.3422C15.8123 11.3375 13.9423 13.1091 12.9725 14.6086L12.5828 15.2116L6.2914 15.2162L0 15.2209V22V28.7791L6.2262 28.7824L12.4524 28.7856L13.0392 29.7017C13.7301 30.7803 15.493 32.5876 16.6901 33.4446C17.8298 34.2605 19.5767 35.1065 20.8963 35.4817C24.142 36.4042 28.1234 36.1304 31.0125 34.7858C36.3478 32.3028 39.5373 27.0514 39.2055 21.2965C39.0331 18.3057 38.1146 15.9281 36.2408 13.6221C34.0231 10.8928 30.7359 8.94364 27.5126 8.44659C26.1001 8.22877 23.3091 8.29835 21.9058 8.5864ZM27.273 10.6688C29.5818 11.1045 31.5247 12.0884 33.3345 13.7386C35.0021 15.259 36.1273 17.1367 36.6685 19.3015C37.0165 20.6933 37.0499 23.269 36.7378 24.6394C35.7353 29.041 31.8688 32.7618 27.4452 33.5813C26.0633 33.8373 23.537 33.7756 22.1666 33.4525C21.0729 33.1945 19.6018 32.5764 18.4504 31.891C17.5209 31.3376 15.5521 29.5887 15.2712 29.0669L15.1163 28.7791H20.0105H24.9048V22.0015V15.224L20.0477 15.1905L15.1906 15.157L16.1034 14.2172C17.9587 12.3071 19.9541 11.1782 22.3622 10.6764C23.4339 10.4532 26.1077 10.449 27.273 10.6688ZM61.8056 13.75V14.7093H62.7836H63.7615V13.75V12.7907H62.7836H61.8056V13.75ZM85.8861 15.9211C85.124 16.1832 84.8059 16.7155 84.9066 17.561L84.9567 17.9818L84.0563 17.5288C83.2002 17.0978 83.0912 17.0756 81.8364 17.0756C80.68 17.0756 80.4253 17.1177 79.7769 17.4158C77.1098 18.6423 76.0651 21.862 77.4568 24.5663C78.6676 26.9192 81.8737 27.7907 84.4899 26.4782C85.0654 26.1893 86.1902 25.2265 86.1851 25.0269C86.1829 24.9449 85.8776 24.662 85.5067 24.3983L84.8321 23.9186L84.4348 24.2822C83.5812 25.0634 83.0784 25.2616 81.9511 25.2616C80.8401 25.2616 80.3317 25.0663 79.5067 24.3224C79.1962 24.0424 78.6262 22.8671 78.6262 22.5068C78.6262 22.4305 80.1935 22.3837 82.7463 22.3837H86.8664L86.7722 21.5872C86.6588 20.6288 86.4193 19.9254 85.9882 19.2847C85.8116 19.0225 85.6673 18.7907 85.6673 18.7697C85.6673 18.7487 85.9038 18.7537 86.193 18.7808C86.8896 18.8459 87.4319 18.6094 87.7524 18.1006C88.54 16.8507 87.3216 15.4278 85.8861 15.9211ZM87.1727 16.4303C87.4152 16.6681 87.4917 16.8773 87.4886 17.2937C87.4823 18.1335 86.9243 18.641 86.1829 18.4813C85.2783 18.2864 84.9796 17.1549 85.6573 16.4902C86.1436 16.0131 86.7241 15.9902 87.1727 16.4303ZM7.07009 17.048C7.79051 17.4621 8.08428 18.0821 8.08428 19.1886V19.9535H6.85208H5.61988L5.58076 19.2193C5.54999 18.6419 5.49314 18.476 5.31489 18.4428C4.97235 18.3788 4.75238 18.9566 4.89999 19.5324C5.00091 19.926 5.1905 20.1153 6.08459 20.7149C8.06172 22.0408 8.25679 22.3552 8.27022 24.2384C8.28156 25.8193 8.07815 26.2547 7.1066 26.7283C5.92056 27.3066 4.468 27.2256 3.34728 26.5188C2.72219 26.1246 2.52582 25.6682 2.40716 24.334L2.31341 23.2791H3.62867H4.94393L4.982 24.2703C5.0189 25.2325 5.02973 25.2616 5.34606 25.2616C5.65509 25.2616 5.67412 25.2198 5.71102 24.4568C5.75575 23.5325 5.73306 23.5043 3.91788 22.2329C2.75739 21.4201 2.4687 20.9816 2.37991 19.8967C2.26894 18.5401 2.42541 17.9159 3.014 17.3667C3.66609 16.7582 4.11855 16.6278 5.42325 16.672C6.28931 16.7015 6.58452 16.7689 7.07009 17.048ZM85.7977 17.3314C85.7977 17.8714 85.8431 18.0349 85.9933 18.0349C86.1019 18.0349 86.1889 17.9212 86.1889 17.7791C86.1889 17.6384 86.273 17.5233 86.3757 17.5233C86.4785 17.5233 86.5997 17.6384 86.6452 17.7791C86.6907 17.9198 86.812 18.0349 86.9148 18.0349C87.1299 18.0349 87.1693 17.5793 86.9648 17.4555C86.8712 17.3987 86.8759 17.3162 86.9794 17.1938C87.262 16.8598 87.0199 16.6279 86.3885 16.6279H85.7977V17.3314ZM15.6196 17.8961L15.6576 18.9302H14.8699H14.0823V22.8953V26.8605H12.7784H11.4745V22.9017V18.943L10.7247 18.9047L9.97496 18.8663L9.93597 17.9836C9.91446 17.4982 9.92176 17.0377 9.95188 16.9603C9.98995 16.8633 10.8702 16.8263 12.7944 16.8409L15.5818 16.8621L15.6196 17.8961ZM20.0802 21.8401L20.0803 26.8605H18.7764H17.4725V21.8935C17.4725 19.1615 17.4997 16.8996 17.533 16.867C17.5664 16.8342 18.153 16.8103 18.8368 16.8136L20.0799 16.8198L20.0802 21.8401ZM46.3542 17.059C45.5895 17.2992 45.2678 17.4928 44.5694 18.1338L43.942 18.7095V17.9885V17.2674H42.964H41.9861V22.064V26.8605H42.964H43.942V23.8158C43.942 20.7923 43.9443 20.7665 44.2814 20.1029C44.7508 19.1789 45.3366 18.7668 46.2755 18.7001C46.9406 18.6529 47.0643 18.6852 47.4539 19.0067C48.2059 19.6273 48.2449 19.8507 48.2449 23.5308V26.8605H49.2228H50.2008L50.2 23.1831C50.1996 20.9854 50.1437 19.3092 50.061 19.0171C49.6727 17.6454 47.739 16.6239 46.3542 17.059ZM86.6195 17.0738C86.6336 17.1432 86.5425 17.2193 86.4171 17.2431C86.2743 17.27 86.1889 17.2073 86.1889 17.0756C86.1889 16.853 86.5742 16.8515 86.6195 17.0738ZM70.3463 17.2447C70.0594 17.3772 69.5227 17.753 69.1536 18.0799C68.7845 18.407 68.4471 18.6744 68.4038 18.6744C68.3605 18.6744 68.3252 18.3578 68.3252 17.9709V17.2674H67.3457H66.3662L66.4004 22.032L66.4345 26.7965L67.4451 26.8339L68.4556 26.8712V23.8211C68.4556 20.8011 68.4589 20.7647 68.7911 20.1107C69.2703 19.1674 69.9937 18.6744 70.8986 18.6744C71.5289 18.6744 71.6473 18.7221 72.1443 19.1767L72.6933 19.679L72.7318 23.2697L72.7701 26.8605H73.7476H74.7251L74.6871 22.9061L74.6492 18.9517L74.2544 18.401C74.0373 18.0981 73.6082 17.6769 73.3008 17.4649C72.8261 17.1376 72.6011 17.074 71.805 17.0418C71.0975 17.013 70.7401 17.0628 70.3463 17.2447ZM58.0243 18.2267V19.186H59.9801H61.936V31.593V44H62.8488H63.7615V30.6337V17.2674H60.8929H58.0243V18.2267ZM82.9682 19.014C83.8623 19.4676 84.6242 20.2451 84.6242 20.704C84.6242 20.8074 83.804 20.8488 81.7555 20.8488C79.6725 20.8488 78.8869 20.8084 78.8869 20.701C78.8869 20.5362 79.4831 19.7254 79.7943 19.4668C80.5711 18.8215 82.1458 18.5969 82.9682 19.014ZM10.6921 25.8372V26.8605H9.71418H8.73624V25.8372V24.814H9.71418H10.6921V25.8372ZM16.8205 25.8372V26.8605H15.8426H14.8646V25.8372V24.814H15.8426H16.8205V25.8372ZM22.8185 25.8372V26.8605L21.808 26.8598L20.7975 26.8593L20.7966 25.8366L20.7958 24.814H21.8071H22.8185V25.8372Z" fill="white"/>
</svg>
