<svg width="14" height="14" viewBox="0 0 14 14" fill="none" xmlns="http://www.w3.org/2000/svg">
<path fill-rule="evenodd" clip-rule="evenodd" d="M6.30004 1.40001C3.59383 1.40001 1.40001 3.59383 1.40001 6.30004C1.40001 9.00625 3.59383 11.2001 6.30004 11.2001C9.00625 11.2001 11.2001 9.00625 11.2001 6.30004C11.2001 3.59383 9.00625 1.40001 6.30004 1.40001ZM0 6.30004C0 2.82062 2.82062 0 6.30004 0C9.77945 0 12.6001 2.82062 12.6001 6.30004C12.6001 9.77945 9.77945 12.6001 6.30004 12.6001C2.82062 12.6001 0 9.77945 0 6.30004Z" fill="#383838"/>
<path fill-rule="evenodd" clip-rule="evenodd" d="M9.75971 9.76008C10.0331 9.48671 10.4763 9.48671 10.7497 9.76008L13.7947 12.8051C14.0681 13.0785 14.0681 13.5217 13.7947 13.7951C13.5213 14.0684 13.0781 14.0684 12.8047 13.7951L9.75971 10.75C9.48635 10.4767 9.48635 10.0334 9.75971 9.76008Z" fill="#383838"/>
</svg>
