<svg width="27" height="22" viewBox="0 0 27 22" fill="none" xmlns="http://www.w3.org/2000/svg">
<path fill-rule="evenodd" clip-rule="evenodd" d="M0.0166016 10.9863C0.0166016 10.1428 0.620238 9.45905 1.36486 9.45905H25.6335C26.3782 9.45905 26.9818 10.1428 26.9818 10.9863C26.9818 11.8298 26.3782 12.5136 25.6335 12.5136H1.36486C0.620238 12.5136 0.0166016 11.8298 0.0166016 10.9863Z" fill="#383838"/>
<path fill-rule="evenodd" clip-rule="evenodd" d="M0.0166016 2.36128C0.0166016 1.51778 0.620238 0.833984 1.36486 0.833984H25.6335C26.3782 0.833984 26.9818 1.51778 26.9818 2.36128C26.9818 3.20478 26.3782 3.88857 25.6335 3.88857H1.36486C0.620238 3.88857 0.0166016 3.20478 0.0166016 2.36128Z" fill="#383838"/>
<path fill-rule="evenodd" clip-rule="evenodd" d="M0.0166016 19.6105C0.0166016 18.767 0.620238 18.0833 1.36486 18.0833H25.6335C26.3782 18.0833 26.9818 18.767 26.9818 19.6105C26.9818 20.454 26.3782 21.1378 25.6335 21.1378H1.36486C0.620238 21.1378 0.0166016 20.454 0.0166016 19.6105Z" fill="#383838"/>
</svg>
