<svg width="22" height="22" viewBox="0 0 22 22" fill="none" xmlns="http://www.w3.org/2000/svg">
<path fill-rule="evenodd" clip-rule="evenodd" d="M9.5 2.11111C5.41923 2.11111 2.11111 5.41923 2.11111 9.5C2.11111 13.5808 5.41923 16.8889 9.5 16.8889C13.5808 16.8889 16.8889 13.5808 16.8889 9.5C16.8889 5.41923 13.5808 2.11111 9.5 2.11111ZM0 9.5C0 4.25329 4.25329 0 9.5 0C14.7467 0 19 4.25329 19 9.5C19 14.7467 14.7467 19 9.5 19C4.25329 19 0 14.7467 0 9.5Z" fill="white"/>
<path fill-rule="evenodd" clip-rule="evenodd" d="M15.3229 15.3229C15.7534 14.8924 16.4514 14.8924 16.8819 15.3229L21.6771 20.1182C22.1076 20.5486 22.1076 21.2466 21.6771 21.6771C21.2466 22.1076 20.5486 22.1076 20.1182 21.6771L15.3229 16.8819C14.8924 16.4514 14.8924 15.7534 15.3229 15.3229Z" fill="white"/>
</svg>
