<svg width="15" height="15" viewBox="0 0 15 15" fill="none" xmlns="http://www.w3.org/2000/svg">
<path d="M14.099 10.7356V12.7505C14.0998 12.9375 14.0614 13.1227 13.9863 13.2941C13.9112 13.4655 13.8011 13.6193 13.663 13.7458C13.5249 13.8722 13.3619 13.9685 13.1843 14.0284C13.0068 14.0883 12.8186 14.1106 12.632 14.0938C10.5611 13.8692 8.5719 13.163 6.82419 12.0318C5.19816 11.0006 3.81958 9.62478 2.78634 8.00197C1.649 6.2498 0.941205 4.25488 0.720306 2.17884C0.703489 1.99311 0.725606 1.80592 0.785248 1.62919C0.844891 1.45246 0.940753 1.29005 1.06673 1.15232C1.19271 1.01459 1.34604 0.904544 1.51697 0.829194C1.68789 0.753845 1.87267 0.71484 2.05953 0.714665H4.07845C4.40505 0.711457 4.72167 0.826882 4.96931 1.03943C5.21694 1.25197 5.37869 1.54713 5.4244 1.86989C5.50961 2.51471 5.66765 3.14784 5.89548 3.7572C5.98603 3.9976 6.00562 4.25886 5.95195 4.51003C5.89828 4.7612 5.77358 4.99175 5.59264 5.17436L4.73797 6.02735C5.69598 7.70883 7.09099 9.10108 8.77582 10.0572L9.63049 9.20421C9.81347 9.02363 10.0445 8.89919 10.2961 8.84562C10.5478 8.79205 10.8096 8.81161 11.0505 8.90197C11.661 9.12936 12.2954 9.28708 12.9415 9.37212C13.2684 9.41815 13.567 9.58249 13.7804 9.83387C13.9938 10.0853 14.1072 10.4062 14.099 10.7356Z" fill="white"/>
</svg>
